<mxfile host="www.draw.io" modified="2020-02-26T06:20:28.849Z" agent="Mozilla/5.0 (Macintosh; Intel Mac OS X 10_14_6) AppleWebKit/537.36 (KHTML, like Gecko) Chrome/79.0.3945.130 Safari/537.36" etag="5eS8L-VaqNbDiTpal5bL" version="12.7.6" type="github">
  <diagram id="r6S2x9kduF3zrZ9_ak4O" name="Page-1">
    <mxGraphModel dx="504" dy="468" grid="1" gridSize="10" guides="1" tooltips="1" connect="1" arrows="1" fold="1" page="1" pageScale="1" pageWidth="1100" pageHeight="1700" math="0" shadow="0">
      <root>
        <mxCell id="0" />
        <mxCell id="1" parent="0" />
        <mxCell id="qDV3Kfev30mSoOPiMTmV-1" value="Store" style="swimlane;fontStyle=1;align=center;verticalAlign=top;childLayout=stackLayout;horizontal=1;startSize=26;horizontalStack=0;resizeParent=1;resizeLast=0;collapsible=1;marginBottom=0;rounded=0;shadow=0;strokeWidth=1;" parent="1" vertex="1">
          <mxGeometry x="40" y="170" width="250" height="280" as="geometry">
            <mxRectangle x="230" y="140" width="160" height="26" as="alternateBounds" />
          </mxGeometry>
        </mxCell>
        <mxCell id="QWoVcq6nWut89EjXCq6N-24" value="- storeName : string" style="text;align=left;verticalAlign=top;spacingLeft=4;spacingRight=4;overflow=hidden;rotatable=0;points=[[0,0.5],[1,0.5]];portConstraint=eastwest;" parent="qDV3Kfev30mSoOPiMTmV-1" vertex="1">
          <mxGeometry y="26" width="250" height="26" as="geometry" />
        </mxCell>
        <mxCell id="qDV3Kfev30mSoOPiMTmV-2" value="- transactions : List&lt;Transaction&gt;" style="text;align=left;verticalAlign=top;spacingLeft=4;spacingRight=4;overflow=hidden;rotatable=0;points=[[0,0.5],[1,0.5]];portConstraint=eastwest;" parent="qDV3Kfev30mSoOPiMTmV-1" vertex="1">
          <mxGeometry y="52" width="250" height="26" as="geometry" />
        </mxCell>
        <mxCell id="qDV3Kfev30mSoOPiMTmV-3" value="- customers : HashTable&lt;Integer, Customer&gt;" style="text;align=left;verticalAlign=top;spacingLeft=4;spacingRight=4;overflow=hidden;rotatable=0;points=[[0,0.5],[1,0.5]];portConstraint=eastwest;rounded=0;shadow=0;html=0;fontColor=#000000;" parent="qDV3Kfev30mSoOPiMTmV-1" vertex="1">
          <mxGeometry y="78" width="250" height="26" as="geometry" />
        </mxCell>
        <mxCell id="qDV3Kfev30mSoOPiMTmV-4" value="- inventory : HashTable&lt;String, BinTree&gt;" style="text;align=left;verticalAlign=top;spacingLeft=4;spacingRight=4;overflow=hidden;rotatable=0;points=[[0,0.5],[1,0.5]];portConstraint=eastwest;rounded=0;shadow=0;html=0;fontColor=#000000;" parent="qDV3Kfev30mSoOPiMTmV-1" vertex="1">
          <mxGeometry y="104" width="250" height="26" as="geometry" />
        </mxCell>
        <mxCell id="qDV3Kfev30mSoOPiMTmV-5" value="" style="line;html=1;strokeWidth=1;align=left;verticalAlign=middle;spacingTop=-1;spacingLeft=3;spacingRight=3;rotatable=0;labelPosition=right;points=[];portConstraint=eastwest;" parent="qDV3Kfev30mSoOPiMTmV-1" vertex="1">
          <mxGeometry y="130" width="250" height="8" as="geometry" />
        </mxCell>
        <mxCell id="qDV3Kfev30mSoOPiMTmV-6" value="+ Store (string)" style="text;align=left;verticalAlign=top;spacingLeft=4;spacingRight=4;overflow=hidden;rotatable=0;points=[[0,0.5],[1,0.5]];portConstraint=eastwest;" parent="qDV3Kfev30mSoOPiMTmV-1" vertex="1">
          <mxGeometry y="138" width="250" height="28" as="geometry" />
        </mxCell>
        <mxCell id="qDV3Kfev30mSoOPiMTmV-7" value="+ populateInventory(&amp; inFile)" style="text;strokeColor=none;fillColor=none;align=left;verticalAlign=top;spacingLeft=4;spacingRight=4;overflow=hidden;rotatable=0;points=[[0,0.5],[1,0.5]];portConstraint=eastwest;" parent="qDV3Kfev30mSoOPiMTmV-1" vertex="1">
          <mxGeometry y="166" width="250" height="26" as="geometry" />
        </mxCell>
        <mxCell id="qDV3Kfev30mSoOPiMTmV-8" value="+ populateCustomers(&amp; inFile)" style="text;strokeColor=none;fillColor=none;align=left;verticalAlign=top;spacingLeft=4;spacingRight=4;overflow=hidden;rotatable=0;points=[[0,0.5],[1,0.5]];portConstraint=eastwest;" parent="qDV3Kfev30mSoOPiMTmV-1" vertex="1">
          <mxGeometry y="192" width="250" height="26" as="geometry" />
        </mxCell>
        <mxCell id="qDV3Kfev30mSoOPiMTmV-9" value="+ readTransactions(&amp; inFile)" style="text;strokeColor=none;fillColor=none;align=left;verticalAlign=top;spacingLeft=4;spacingRight=4;overflow=hidden;rotatable=0;points=[[0,0.5],[1,0.5]];portConstraint=eastwest;" parent="qDV3Kfev30mSoOPiMTmV-1" vertex="1">
          <mxGeometry y="218" width="250" height="26" as="geometry" />
        </mxCell>
        <mxCell id="qDV3Kfev30mSoOPiMTmV-10" value="- executeTransactions( )" style="text;strokeColor=none;fillColor=none;align=left;verticalAlign=top;spacingLeft=4;spacingRight=4;overflow=hidden;rotatable=0;points=[[0,0.5],[1,0.5]];portConstraint=eastwest;" parent="qDV3Kfev30mSoOPiMTmV-1" vertex="1">
          <mxGeometry y="244" width="250" height="26" as="geometry" />
        </mxCell>
        <mxCell id="qDV3Kfev30mSoOPiMTmV-13" value="" style="endArrow=block;endSize=10;endFill=0;shadow=0;strokeWidth=1;rounded=0;edgeStyle=elbowEdgeStyle;elbow=vertical;exitX=0.46;exitY=-0.002;exitDx=0;exitDy=0;entryX=0.5;entryY=1;entryDx=0;entryDy=0;exitPerimeter=0;" parent="1" source="qDV3Kfev30mSoOPiMTmV-139" target="qDV3Kfev30mSoOPiMTmV-14" edge="1">
          <mxGeometry width="160" relative="1" as="geometry">
            <mxPoint x="285" y="548" as="sourcePoint" />
            <mxPoint x="771" y="549" as="targetPoint" />
            <Array as="points">
              <mxPoint x="260" y="508" />
              <mxPoint x="210" y="508" />
              <mxPoint x="410" y="508" />
            </Array>
          </mxGeometry>
        </mxCell>
        <mxCell id="qDV3Kfev30mSoOPiMTmV-14" value="Transaction" style="swimlane;fontStyle=1;align=center;verticalAlign=top;childLayout=stackLayout;horizontal=1;startSize=26;horizontalStack=0;resizeParent=1;resizeLast=0;collapsible=1;marginBottom=0;rounded=0;shadow=0;strokeWidth=1;" parent="1" vertex="1">
          <mxGeometry x="425" y="238" width="225" height="152" as="geometry">
            <mxRectangle x="500" y="120" width="160" height="26" as="alternateBounds" />
          </mxGeometry>
        </mxCell>
        <mxCell id="qDV3Kfev30mSoOPiMTmV-15" value="+ #transactionType : string" style="text;strokeColor=none;fillColor=none;align=left;verticalAlign=top;spacingLeft=4;spacingRight=4;overflow=hidden;rotatable=0;points=[[0,0.5],[1,0.5]];portConstraint=eastwest;fontColor=#000000;" parent="qDV3Kfev30mSoOPiMTmV-14" vertex="1">
          <mxGeometry y="26" width="225" height="26" as="geometry" />
        </mxCell>
        <mxCell id="qDV3Kfev30mSoOPiMTmV-16" value="" style="line;html=1;strokeWidth=1;align=left;verticalAlign=middle;spacingTop=-1;spacingLeft=3;spacingRight=3;rotatable=0;labelPosition=right;points=[];portConstraint=eastwest;" parent="qDV3Kfev30mSoOPiMTmV-14" vertex="1">
          <mxGeometry y="52" width="225" height="8" as="geometry" />
        </mxCell>
        <mxCell id="qDV3Kfev30mSoOPiMTmV-17" value="+ Transaction( )" style="text;strokeColor=none;fillColor=none;align=left;verticalAlign=top;spacingLeft=4;spacingRight=4;overflow=hidden;rotatable=0;points=[[0,0.5],[1,0.5]];portConstraint=eastwest;fontColor=#000000;" parent="qDV3Kfev30mSoOPiMTmV-14" vertex="1">
          <mxGeometry y="60" width="225" height="30" as="geometry" />
        </mxCell>
        <mxCell id="qDV3Kfev30mSoOPiMTmV-18" value="+ virtual ~Transaction( )" style="text;strokeColor=none;fillColor=none;align=left;verticalAlign=top;spacingLeft=4;spacingRight=4;overflow=hidden;rotatable=0;points=[[0,0.5],[1,0.5]];portConstraint=eastwest;fontColor=#000000;" parent="qDV3Kfev30mSoOPiMTmV-14" vertex="1">
          <mxGeometry y="90" width="225" height="26" as="geometry" />
        </mxCell>
        <mxCell id="qDV3Kfev30mSoOPiMTmV-20" value="+ doTransaction ( )" style="text;strokeColor=none;fillColor=none;align=left;verticalAlign=top;spacingLeft=4;spacingRight=4;overflow=hidden;rotatable=0;points=[[0,0.5],[1,0.5]];portConstraint=eastwest;" parent="qDV3Kfev30mSoOPiMTmV-14" vertex="1">
          <mxGeometry y="116" width="225" height="26" as="geometry" />
        </mxCell>
        <mxCell id="qDV3Kfev30mSoOPiMTmV-30" value="Borrow" style="swimlane;fontStyle=1;align=center;verticalAlign=top;childLayout=stackLayout;horizontal=1;startSize=26;horizontalStack=0;resizeParent=1;resizeLast=0;collapsible=1;marginBottom=0;rounded=0;shadow=0;strokeWidth=1;" parent="1" vertex="1">
          <mxGeometry x="560" y="522" width="230" height="238" as="geometry">
            <mxRectangle x="340" y="380" width="170" height="26" as="alternateBounds" />
          </mxGeometry>
        </mxCell>
        <mxCell id="qDV3Kfev30mSoOPiMTmV-31" value="- movie : Movie" style="text;strokeColor=none;fillColor=none;align=left;verticalAlign=top;spacingLeft=4;spacingRight=4;overflow=hidden;rotatable=0;points=[[0,0.5],[1,0.5]];portConstraint=eastwest;fontColor=#000000;" parent="qDV3Kfev30mSoOPiMTmV-30" vertex="1">
          <mxGeometry y="26" width="230" height="26" as="geometry" />
        </mxCell>
        <mxCell id="qDV3Kfev30mSoOPiMTmV-32" value="- user : Customer" style="text;strokeColor=none;fillColor=none;align=left;verticalAlign=top;spacingLeft=4;spacingRight=4;overflow=hidden;rotatable=0;points=[[0,0.5],[1,0.5]];portConstraint=eastwest;fontColor=#000000;" parent="qDV3Kfev30mSoOPiMTmV-30" vertex="1">
          <mxGeometry y="52" width="230" height="26" as="geometry" />
        </mxCell>
        <mxCell id="qDV3Kfev30mSoOPiMTmV-33" value="" style="line;html=1;strokeWidth=1;align=left;verticalAlign=middle;spacingTop=-1;spacingLeft=3;spacingRight=3;rotatable=0;labelPosition=right;points=[];portConstraint=eastwest;" parent="qDV3Kfev30mSoOPiMTmV-30" vertex="1">
          <mxGeometry y="78" width="230" height="8" as="geometry" />
        </mxCell>
        <mxCell id="QWoVcq6nWut89EjXCq6N-20" value="+ Borrow(string, HashTable&lt;string,Â &#xa;Movie&gt;&amp; HashTable&lt;int, Customer&gt;&amp;)" style="text;strokeColor=none;fillColor=none;align=left;verticalAlign=top;spacingLeft=4;spacingRight=4;overflow=hidden;rotatable=0;points=[[0,0.5],[1,0.5]];portConstraint=eastwest;fontColor=#000000;" parent="qDV3Kfev30mSoOPiMTmV-30" vertex="1">
          <mxGeometry y="86" width="230" height="44" as="geometry" />
        </mxCell>
        <mxCell id="QWoVcq6nWut89EjXCq6N-21" value="+ ~Borrow( )" style="text;strokeColor=none;fillColor=none;align=left;verticalAlign=top;spacingLeft=4;spacingRight=4;overflow=hidden;rotatable=0;points=[[0,0.5],[1,0.5]];portConstraint=eastwest;fontColor=#000000;" parent="qDV3Kfev30mSoOPiMTmV-30" vertex="1">
          <mxGeometry y="130" width="230" height="26" as="geometry" />
        </mxCell>
        <mxCell id="qDV3Kfev30mSoOPiMTmV-34" value="+ doTransaction( )" style="text;strokeColor=none;fillColor=none;align=left;verticalAlign=top;spacingLeft=4;spacingRight=4;overflow=hidden;rotatable=0;points=[[0,0.5],[1,0.5]];portConstraint=eastwest;fontColor=#000000;" parent="qDV3Kfev30mSoOPiMTmV-30" vertex="1">
          <mxGeometry y="156" width="230" height="26" as="geometry" />
        </mxCell>
        <mxCell id="qDV3Kfev30mSoOPiMTmV-35" value="- virtual isValid(string info, &#xa;Â  HashTable&lt;char, Movie&gt;&amp;,&#xa;Â  HashTable&lt;int, Customer&gt;&amp;)Â : bool" style="text;strokeColor=none;fillColor=none;align=left;verticalAlign=top;spacingLeft=4;spacingRight=4;overflow=hidden;rotatable=0;points=[[0,0.5],[1,0.5]];portConstraint=eastwest;" parent="qDV3Kfev30mSoOPiMTmV-30" vertex="1">
          <mxGeometry y="182" width="230" height="48" as="geometry" />
        </mxCell>
        <mxCell id="qDV3Kfev30mSoOPiMTmV-36" value="" style="endArrow=block;endSize=10;endFill=0;shadow=0;strokeWidth=1;rounded=0;edgeStyle=elbowEdgeStyle;elbow=vertical;exitX=0.5;exitY=0;exitDx=0;exitDy=0;entryX=0.5;entryY=1;entryDx=0;entryDy=0;" parent="1" source="qDV3Kfev30mSoOPiMTmV-30" target="qDV3Kfev30mSoOPiMTmV-14" edge="1">
          <mxGeometry width="160" relative="1" as="geometry">
            <mxPoint x="305" y="738" as="sourcePoint" />
            <mxPoint x="520" y="628" as="targetPoint" />
            <Array as="points">
              <mxPoint x="610" y="508" />
            </Array>
          </mxGeometry>
        </mxCell>
        <mxCell id="qDV3Kfev30mSoOPiMTmV-37" value="" style="endArrow=block;endSize=10;endFill=0;shadow=0;strokeWidth=1;rounded=0;edgeStyle=elbowEdgeStyle;elbow=vertical;exitX=0.5;exitY=0;exitDx=0;exitDy=0;entryX=0.5;entryY=1;entryDx=0;entryDy=0;" parent="1" source="qDV3Kfev30mSoOPiMTmV-134" target="qDV3Kfev30mSoOPiMTmV-14" edge="1">
          <mxGeometry width="160" relative="1" as="geometry">
            <mxPoint x="450" y="548" as="sourcePoint" />
            <mxPoint x="615" y="618" as="targetPoint" />
            <Array as="points">
              <mxPoint x="510" y="508" />
            </Array>
          </mxGeometry>
        </mxCell>
        <mxCell id="qDV3Kfev30mSoOPiMTmV-38" value="" style="endArrow=block;endSize=10;endFill=0;shadow=0;strokeWidth=1;rounded=0;edgeStyle=elbowEdgeStyle;elbow=vertical;entryX=0.5;entryY=1;entryDx=0;entryDy=0;exitX=0.5;exitY=0;exitDx=0;exitDy=0;" parent="1" source="qDV3Kfev30mSoOPiMTmV-128" target="qDV3Kfev30mSoOPiMTmV-14" edge="1">
          <mxGeometry width="160" relative="1" as="geometry">
            <mxPoint x="790" y="548" as="sourcePoint" />
            <mxPoint x="615" y="618" as="targetPoint" />
            <Array as="points">
              <mxPoint x="710" y="508" />
            </Array>
          </mxGeometry>
        </mxCell>
        <mxCell id="qDV3Kfev30mSoOPiMTmV-39" value="TransactionFactory" style="swimlane;fontStyle=1;align=center;verticalAlign=top;childLayout=stackLayout;horizontal=1;startSize=26;horizontalStack=0;resizeParent=1;resizeLast=0;collapsible=1;marginBottom=0;rounded=0;shadow=0;strokeWidth=1;" parent="1" vertex="1">
          <mxGeometry x="676" y="243" width="214" height="68" as="geometry">
            <mxRectangle x="500" y="120" width="160" height="26" as="alternateBounds" />
          </mxGeometry>
        </mxCell>
        <mxCell id="qDV3Kfev30mSoOPiMTmV-40" value="" style="line;html=1;strokeWidth=1;align=left;verticalAlign=middle;spacingTop=-1;spacingLeft=3;spacingRight=3;rotatable=0;labelPosition=right;points=[];portConstraint=eastwest;" parent="qDV3Kfev30mSoOPiMTmV-39" vertex="1">
          <mxGeometry y="26" width="214" height="8" as="geometry" />
        </mxCell>
        <mxCell id="qDV3Kfev30mSoOPiMTmV-41" value="+ createTransaction ( ) : Transaction" style="text;strokeColor=none;fillColor=none;align=left;verticalAlign=top;spacingLeft=4;spacingRight=4;overflow=hidden;rotatable=0;points=[[0,0.5],[1,0.5]];portConstraint=eastwest;" parent="qDV3Kfev30mSoOPiMTmV-39" vertex="1">
          <mxGeometry y="34" width="214" height="26" as="geometry" />
        </mxCell>
        <mxCell id="qDV3Kfev30mSoOPiMTmV-42" value="" style="endArrow=none;html=1;endSize=12;startArrow=diamondThin;startSize=14;startFill=1;edgeStyle=orthogonalEdgeStyle;align=left;verticalAlign=bottom;fontColor=#000000;entryX=0.5;entryY=0;entryDx=0;entryDy=0;exitX=1;exitY=0.5;exitDx=0;exitDy=0;endFill=0;" parent="1" source="qDV3Kfev30mSoOPiMTmV-2" edge="1">
          <mxGeometry x="-0.3333" y="12" relative="1" as="geometry">
            <mxPoint x="490" y="154" as="sourcePoint" />
            <mxPoint x="519" y="238" as="targetPoint" />
            <mxPoint as="offset" />
            <Array as="points">
              <mxPoint x="380" y="235" />
              <mxPoint x="380" y="210" />
              <mxPoint x="519" y="210" />
            </Array>
          </mxGeometry>
        </mxCell>
        <mxCell id="qDV3Kfev30mSoOPiMTmV-43" value="" style="endArrow=none;html=1;fontColor=#000000;entryX=0.5;entryY=1;entryDx=0;entryDy=0;endFill=0;exitX=0.501;exitY=1.005;exitDx=0;exitDy=0;exitPerimeter=0;" parent="1" source="qDV3Kfev30mSoOPiMTmV-133" target="qDV3Kfev30mSoOPiMTmV-39" edge="1">
          <mxGeometry width="50" height="50" relative="1" as="geometry">
            <mxPoint x="890" y="683" as="sourcePoint" />
            <mxPoint x="580" y="618" as="targetPoint" />
            <Array as="points">
              <mxPoint x="920" y="780" />
              <mxPoint x="1070" y="780" />
              <mxPoint x="1070" y="478" />
              <mxPoint x="783" y="478" />
            </Array>
          </mxGeometry>
        </mxCell>
        <mxCell id="qDV3Kfev30mSoOPiMTmV-44" value="" style="endArrow=none;html=1;fontColor=#000000;exitX=0.5;exitY=1;exitDx=0;exitDy=0;" parent="1" source="qDV3Kfev30mSoOPiMTmV-30" edge="1">
          <mxGeometry width="50" height="50" relative="1" as="geometry">
            <mxPoint x="530" y="668" as="sourcePoint" />
            <mxPoint x="930" y="780" as="targetPoint" />
            <Array as="points">
              <mxPoint x="675" y="780" />
            </Array>
          </mxGeometry>
        </mxCell>
        <mxCell id="qDV3Kfev30mSoOPiMTmV-45" value="" style="endArrow=none;html=1;fontColor=#000000;exitX=0.489;exitY=1.021;exitDx=0;exitDy=0;exitPerimeter=0;" parent="1" source="qDV3Kfev30mSoOPiMTmV-138" edge="1">
          <mxGeometry width="50" height="50" relative="1" as="geometry">
            <mxPoint x="429" y="728" as="sourcePoint" />
            <mxPoint x="720" y="780" as="targetPoint" />
            <Array as="points">
              <mxPoint x="429" y="780" />
            </Array>
          </mxGeometry>
        </mxCell>
        <mxCell id="qDV3Kfev30mSoOPiMTmV-46" value="" style="endArrow=none;html=1;fontColor=#000000;exitX=0.458;exitY=1.015;exitDx=0;exitDy=0;exitPerimeter=0;" parent="1" source="qDV3Kfev30mSoOPiMTmV-143" edge="1">
          <mxGeometry width="50" height="50" relative="1" as="geometry">
            <mxPoint x="290" y="618" as="sourcePoint" />
            <mxPoint x="520" y="780" as="targetPoint" />
            <Array as="points">
              <mxPoint x="181" y="780" />
            </Array>
          </mxGeometry>
        </mxCell>
        <mxCell id="qDV3Kfev30mSoOPiMTmV-47" value="" style="endArrow=none;html=1;fontColor=#000000;entryX=0;entryY=0.073;entryDx=0;entryDy=0;entryPerimeter=0;" parent="1" edge="1">
          <mxGeometry width="50" height="50" relative="1" as="geometry">
            <mxPoint x="650" y="256" as="sourcePoint" />
            <mxPoint x="676" y="255.96399999999994" as="targetPoint" />
          </mxGeometry>
        </mxCell>
        <mxCell id="qDV3Kfev30mSoOPiMTmV-48" value="BinTree" style="swimlane;fontStyle=1;align=center;verticalAlign=top;childLayout=stackLayout;horizontal=1;startSize=26;horizontalStack=0;resizeParent=1;resizeParentMax=0;resizeLast=0;collapsible=1;marginBottom=0;" parent="1" vertex="1">
          <mxGeometry x="130" y="1074.8899999999999" width="180" height="356" as="geometry" />
        </mxCell>
        <mxCell id="qDV3Kfev30mSoOPiMTmV-49" value="- Node : Node Struct {&#xa;Â  Â  - data : Movie&#xa;Â  Â  - left : Node&#xa;Â  Â  - right : Node&#xa;}" style="text;strokeColor=none;fillColor=none;align=left;verticalAlign=top;spacingLeft=4;spacingRight=4;overflow=hidden;rotatable=0;points=[[0,0.5],[1,0.5]];portConstraint=eastwest;" parent="qDV3Kfev30mSoOPiMTmV-48" vertex="1">
          <mxGeometry y="26" width="180" height="84" as="geometry" />
        </mxCell>
        <mxCell id="QWoVcq6nWut89EjXCq6N-6" value="- root : Node" style="text;strokeColor=none;fillColor=none;align=left;verticalAlign=top;spacingLeft=4;spacingRight=4;overflow=hidden;rotatable=0;points=[[0,0.5],[1,0.5]];portConstraint=eastwest;" parent="qDV3Kfev30mSoOPiMTmV-48" vertex="1">
          <mxGeometry y="110" width="180" height="30" as="geometry" />
        </mxCell>
        <mxCell id="qDV3Kfev30mSoOPiMTmV-50" value="" style="line;strokeWidth=1;fillColor=none;align=left;verticalAlign=middle;spacingTop=-1;spacingLeft=3;spacingRight=3;rotatable=0;labelPosition=right;points=[];portConstraint=eastwest;" parent="qDV3Kfev30mSoOPiMTmV-48" vertex="1">
          <mxGeometry y="140" width="180" height="8" as="geometry" />
        </mxCell>
        <mxCell id="QWoVcq6nWut89EjXCq6N-10" value="+ BinTree ( )" style="text;strokeColor=none;fillColor=none;align=left;verticalAlign=top;spacingLeft=4;spacingRight=4;overflow=hidden;rotatable=0;points=[[0,0.5],[1,0.5]];portConstraint=eastwest;" parent="qDV3Kfev30mSoOPiMTmV-48" vertex="1">
          <mxGeometry y="148" width="180" height="26" as="geometry" />
        </mxCell>
        <mxCell id="QWoVcq6nWut89EjXCq6N-8" value="+ ~BinTree ( )" style="text;strokeColor=none;fillColor=none;align=left;verticalAlign=top;spacingLeft=4;spacingRight=4;overflow=hidden;rotatable=0;points=[[0,0.5],[1,0.5]];portConstraint=eastwest;" parent="qDV3Kfev30mSoOPiMTmV-48" vertex="1">
          <mxGeometry y="174" width="180" height="26" as="geometry" />
        </mxCell>
        <mxCell id="QWoVcq6nWut89EjXCq6N-9" value="+ BinTree (BinTree &amp;)" style="text;strokeColor=none;fillColor=none;align=left;verticalAlign=top;spacingLeft=4;spacingRight=4;overflow=hidden;rotatable=0;points=[[0,0.5],[1,0.5]];portConstraint=eastwest;" parent="qDV3Kfev30mSoOPiMTmV-48" vertex="1">
          <mxGeometry y="200" width="180" height="26" as="geometry" />
        </mxCell>
        <mxCell id="QWoVcq6nWut89EjXCq6N-12" value="+ isEmpty ( )" style="text;strokeColor=none;fillColor=none;align=left;verticalAlign=top;spacingLeft=4;spacingRight=4;overflow=hidden;rotatable=0;points=[[0,0.5],[1,0.5]];portConstraint=eastwest;" parent="qDV3Kfev30mSoOPiMTmV-48" vertex="1">
          <mxGeometry y="226" width="180" height="26" as="geometry" />
        </mxCell>
        <mxCell id="QWoVcq6nWut89EjXCq6N-11" value="+ makeEmpty ( )" style="text;strokeColor=none;fillColor=none;align=left;verticalAlign=top;spacingLeft=4;spacingRight=4;overflow=hidden;rotatable=0;points=[[0,0.5],[1,0.5]];portConstraint=eastwest;" parent="qDV3Kfev30mSoOPiMTmV-48" vertex="1">
          <mxGeometry y="252" width="180" height="26" as="geometry" />
        </mxCell>
        <mxCell id="QWoVcq6nWut89EjXCq6N-13" value="+ operator =, ==, != (BinTree &amp;)" style="text;strokeColor=none;fillColor=none;align=left;verticalAlign=top;spacingLeft=4;spacingRight=4;overflow=hidden;rotatable=0;points=[[0,0.5],[1,0.5]];portConstraint=eastwest;" parent="qDV3Kfev30mSoOPiMTmV-48" vertex="1">
          <mxGeometry y="278" width="180" height="26" as="geometry" />
        </mxCell>
        <mxCell id="qDV3Kfev30mSoOPiMTmV-51" value="+ insert (Movie)" style="text;strokeColor=none;fillColor=none;align=left;verticalAlign=top;spacingLeft=4;spacingRight=4;overflow=hidden;rotatable=0;points=[[0,0.5],[1,0.5]];portConstraint=eastwest;" parent="qDV3Kfev30mSoOPiMTmV-48" vertex="1">
          <mxGeometry y="304" width="180" height="26" as="geometry" />
        </mxCell>
        <mxCell id="qDV3Kfev30mSoOPiMTmV-52" value="+ remove (Movie)" style="text;strokeColor=none;fillColor=none;align=left;verticalAlign=top;spacingLeft=4;spacingRight=4;overflow=hidden;rotatable=0;points=[[0,0.5],[1,0.5]];portConstraint=eastwest;" parent="qDV3Kfev30mSoOPiMTmV-48" vertex="1">
          <mxGeometry y="330" width="180" height="26" as="geometry" />
        </mxCell>
        <mxCell id="qDV3Kfev30mSoOPiMTmV-58" value="Movie" style="swimlane;fontStyle=1;align=center;verticalAlign=top;childLayout=stackLayout;horizontal=1;startSize=26;horizontalStack=0;resizeParent=1;resizeParentMax=0;resizeLast=0;collapsible=1;marginBottom=0;" parent="1" vertex="1">
          <mxGeometry x="400" y="1063.89" width="160" height="346" as="geometry" />
        </mxCell>
        <mxCell id="qDV3Kfev30mSoOPiMTmV-59" value="+ #title : string" style="text;strokeColor=none;fillColor=none;align=left;verticalAlign=top;spacingLeft=4;spacingRight=4;overflow=hidden;rotatable=0;points=[[0,0.5],[1,0.5]];portConstraint=eastwest;fontColor=#000000;" parent="qDV3Kfev30mSoOPiMTmV-58" vertex="1">
          <mxGeometry y="26" width="160" height="26" as="geometry" />
        </mxCell>
        <mxCell id="qDV3Kfev30mSoOPiMTmV-60" value="+ #releaseYear : int" style="text;strokeColor=none;fillColor=none;align=left;verticalAlign=top;spacingLeft=4;spacingRight=4;overflow=hidden;rotatable=0;points=[[0,0.5],[1,0.5]];portConstraint=eastwest;fontColor=#000000;" parent="qDV3Kfev30mSoOPiMTmV-58" vertex="1">
          <mxGeometry y="52" width="160" height="26" as="geometry" />
        </mxCell>
        <mxCell id="qDV3Kfev30mSoOPiMTmV-61" value="+ #stockInStore : int" style="text;strokeColor=none;fillColor=none;align=left;verticalAlign=top;spacingLeft=4;spacingRight=4;overflow=hidden;rotatable=0;points=[[0,0.5],[1,0.5]];portConstraint=eastwest;fontColor=#000000;" parent="qDV3Kfev30mSoOPiMTmV-58" vertex="1">
          <mxGeometry y="78" width="160" height="26" as="geometry" />
        </mxCell>
        <mxCell id="qDV3Kfev30mSoOPiMTmV-62" value="+ #director : string" style="text;strokeColor=none;fillColor=none;align=left;verticalAlign=top;spacingLeft=4;spacingRight=4;overflow=hidden;rotatable=0;points=[[0,0.5],[1,0.5]];portConstraint=eastwest;fontColor=#000000;" parent="qDV3Kfev30mSoOPiMTmV-58" vertex="1">
          <mxGeometry y="104" width="160" height="26" as="geometry" />
        </mxCell>
        <mxCell id="qDV3Kfev30mSoOPiMTmV-63" value="+ #genre : string" style="text;strokeColor=none;fillColor=none;align=left;verticalAlign=top;spacingLeft=4;spacingRight=4;overflow=hidden;rotatable=0;points=[[0,0.5],[1,0.5]];portConstraint=eastwest;fontColor=#000000;" parent="qDV3Kfev30mSoOPiMTmV-58" vertex="1">
          <mxGeometry y="130" width="160" height="26" as="geometry" />
        </mxCell>
        <mxCell id="qDV3Kfev30mSoOPiMTmV-64" value="+ #format : string" style="text;strokeColor=none;fillColor=none;align=left;verticalAlign=top;spacingLeft=4;spacingRight=4;overflow=hidden;rotatable=0;points=[[0,0.5],[1,0.5]];portConstraint=eastwest;fontColor=#000000;" parent="qDV3Kfev30mSoOPiMTmV-58" vertex="1">
          <mxGeometry y="156" width="160" height="26" as="geometry" />
        </mxCell>
        <mxCell id="qDV3Kfev30mSoOPiMTmV-65" value="" style="line;strokeWidth=1;fillColor=none;align=left;verticalAlign=middle;spacingTop=-1;spacingLeft=3;spacingRight=3;rotatable=0;labelPosition=right;points=[];portConstraint=eastwest;" parent="qDV3Kfev30mSoOPiMTmV-58" vertex="1">
          <mxGeometry y="182" width="160" height="8" as="geometry" />
        </mxCell>
        <mxCell id="qDV3Kfev30mSoOPiMTmV-66" value="+ Movie (string)" style="text;strokeColor=none;fillColor=none;align=left;verticalAlign=top;spacingLeft=4;spacingRight=4;overflow=hidden;rotatable=0;points=[[0,0.5],[1,0.5]];portConstraint=eastwest;fontColor=#000000;" parent="qDV3Kfev30mSoOPiMTmV-58" vertex="1">
          <mxGeometry y="190" width="160" height="26" as="geometry" />
        </mxCell>
        <mxCell id="qDV3Kfev30mSoOPiMTmV-67" value="+ virtual ~Movie ( )" style="text;strokeColor=none;fillColor=none;align=left;verticalAlign=top;spacingLeft=4;spacingRight=4;overflow=hidden;rotatable=0;points=[[0,0.5],[1,0.5]];portConstraint=eastwest;fontColor=#000000;" parent="qDV3Kfev30mSoOPiMTmV-58" vertex="1">
          <mxGeometry y="216" width="160" height="26" as="geometry" />
        </mxCell>
        <mxCell id="QWoVcq6nWut89EjXCq6N-49" value="+ gets (accessors)" style="text;strokeColor=none;fillColor=none;align=left;verticalAlign=top;spacingLeft=4;spacingRight=4;overflow=hidden;rotatable=0;points=[[0,0.5],[1,0.5]];portConstraint=eastwest;" parent="qDV3Kfev30mSoOPiMTmV-58" vertex="1">
          <mxGeometry y="242" width="160" height="26" as="geometry" />
        </mxCell>
        <mxCell id="jTKOp4NMPJWGSixjttvo-1" value="+ increaseStock()" style="text;strokeColor=none;fillColor=none;align=left;verticalAlign=top;spacingLeft=4;spacingRight=4;overflow=hidden;rotatable=0;points=[[0,0.5],[1,0.5]];portConstraint=eastwest;" vertex="1" parent="qDV3Kfev30mSoOPiMTmV-58">
          <mxGeometry y="268" width="160" height="26" as="geometry" />
        </mxCell>
        <mxCell id="jTKOp4NMPJWGSixjttvo-2" value="+ decreaseStock()" style="text;strokeColor=none;fillColor=none;align=left;verticalAlign=top;spacingLeft=4;spacingRight=4;overflow=hidden;rotatable=0;points=[[0,0.5],[1,0.5]];portConstraint=eastwest;" vertex="1" parent="qDV3Kfev30mSoOPiMTmV-58">
          <mxGeometry y="294" width="160" height="26" as="geometry" />
        </mxCell>
        <mxCell id="qDV3Kfev30mSoOPiMTmV-71" value="+ compareTo(Movie) : int" style="text;strokeColor=none;fillColor=none;align=left;verticalAlign=top;spacingLeft=4;spacingRight=4;overflow=hidden;rotatable=0;points=[[0,0.5],[1,0.5]];portConstraint=eastwest;" parent="qDV3Kfev30mSoOPiMTmV-58" vertex="1">
          <mxGeometry y="320" width="160" height="26" as="geometry" />
        </mxCell>
        <mxCell id="qDV3Kfev30mSoOPiMTmV-72" value="Comedy" style="swimlane;fontStyle=1;align=center;verticalAlign=top;childLayout=stackLayout;horizontal=1;startSize=26;horizontalStack=0;resizeParent=1;resizeParentMax=0;resizeLast=0;collapsible=1;marginBottom=0;" parent="1" vertex="1">
          <mxGeometry x="150" y="1462.89" width="200" height="112" as="geometry" />
        </mxCell>
        <mxCell id="qDV3Kfev30mSoOPiMTmV-73" value="" style="line;strokeWidth=1;fillColor=none;align=left;verticalAlign=middle;spacingTop=-1;spacingLeft=3;spacingRight=3;rotatable=0;labelPosition=right;points=[];portConstraint=eastwest;" parent="qDV3Kfev30mSoOPiMTmV-72" vertex="1">
          <mxGeometry y="26" width="200" height="8" as="geometry" />
        </mxCell>
        <mxCell id="qDV3Kfev30mSoOPiMTmV-74" value="+ Comedy (string)Â " style="text;strokeColor=none;fillColor=none;align=left;verticalAlign=top;spacingLeft=4;spacingRight=4;overflow=hidden;rotatable=0;points=[[0,0.5],[1,0.5]];portConstraint=eastwest;" parent="qDV3Kfev30mSoOPiMTmV-72" vertex="1">
          <mxGeometry y="34" width="200" height="26" as="geometry" />
        </mxCell>
        <mxCell id="qDV3Kfev30mSoOPiMTmV-75" value="+ virtual ~Comedy ( )Â " style="text;strokeColor=none;fillColor=none;align=left;verticalAlign=top;spacingLeft=4;spacingRight=4;overflow=hidden;rotatable=0;points=[[0,0.5],[1,0.5]];portConstraint=eastwest;" parent="qDV3Kfev30mSoOPiMTmV-72" vertex="1">
          <mxGeometry y="60" width="200" height="26" as="geometry" />
        </mxCell>
        <mxCell id="qDV3Kfev30mSoOPiMTmV-76" value="+ virtual compareTo(Comedy) : int" style="text;strokeColor=none;fillColor=none;align=left;verticalAlign=top;spacingLeft=4;spacingRight=4;overflow=hidden;rotatable=0;points=[[0,0.5],[1,0.5]];portConstraint=eastwest;" parent="qDV3Kfev30mSoOPiMTmV-72" vertex="1">
          <mxGeometry y="86" width="200" height="26" as="geometry" />
        </mxCell>
        <mxCell id="qDV3Kfev30mSoOPiMTmV-77" value="Drama" style="swimlane;fontStyle=1;align=center;verticalAlign=top;childLayout=stackLayout;horizontal=1;startSize=26;horizontalStack=0;resizeParent=1;resizeParentMax=0;resizeLast=0;collapsible=1;marginBottom=0;" parent="1" vertex="1">
          <mxGeometry x="400" y="1462.89" width="180" height="112" as="geometry" />
        </mxCell>
        <mxCell id="qDV3Kfev30mSoOPiMTmV-78" value="" style="line;strokeWidth=1;fillColor=none;align=left;verticalAlign=middle;spacingTop=-1;spacingLeft=3;spacingRight=3;rotatable=0;labelPosition=right;points=[];portConstraint=eastwest;" parent="qDV3Kfev30mSoOPiMTmV-77" vertex="1">
          <mxGeometry y="26" width="180" height="8" as="geometry" />
        </mxCell>
        <mxCell id="qDV3Kfev30mSoOPiMTmV-79" value="+ Drama (string)" style="text;strokeColor=none;fillColor=none;align=left;verticalAlign=top;spacingLeft=4;spacingRight=4;overflow=hidden;rotatable=0;points=[[0,0.5],[1,0.5]];portConstraint=eastwest;" parent="qDV3Kfev30mSoOPiMTmV-77" vertex="1">
          <mxGeometry y="34" width="180" height="26" as="geometry" />
        </mxCell>
        <mxCell id="qDV3Kfev30mSoOPiMTmV-80" value="+ virtual ~Drama ( )" style="text;strokeColor=none;fillColor=none;align=left;verticalAlign=top;spacingLeft=4;spacingRight=4;overflow=hidden;rotatable=0;points=[[0,0.5],[1,0.5]];portConstraint=eastwest;" parent="qDV3Kfev30mSoOPiMTmV-77" vertex="1">
          <mxGeometry y="60" width="180" height="26" as="geometry" />
        </mxCell>
        <mxCell id="qDV3Kfev30mSoOPiMTmV-81" value="+ virtual compareTo(Drama) : int" style="text;strokeColor=none;fillColor=none;align=left;verticalAlign=top;spacingLeft=4;spacingRight=4;overflow=hidden;rotatable=0;points=[[0,0.5],[1,0.5]];portConstraint=eastwest;" parent="qDV3Kfev30mSoOPiMTmV-77" vertex="1">
          <mxGeometry y="86" width="180" height="26" as="geometry" />
        </mxCell>
        <mxCell id="qDV3Kfev30mSoOPiMTmV-82" value="Classics" style="swimlane;fontStyle=1;align=center;verticalAlign=top;childLayout=stackLayout;horizontal=1;startSize=26;horizontalStack=0;resizeParent=1;resizeParentMax=0;resizeLast=0;collapsible=1;marginBottom=0;" parent="1" vertex="1">
          <mxGeometry x="620" y="1462.89" width="190" height="164" as="geometry" />
        </mxCell>
        <mxCell id="qDV3Kfev30mSoOPiMTmV-83" value="+ majorActor : string" style="text;strokeColor=none;fillColor=none;align=left;verticalAlign=top;spacingLeft=4;spacingRight=4;overflow=hidden;rotatable=0;points=[[0,0.5],[1,0.5]];portConstraint=eastwest;fontColor=#000000;" parent="qDV3Kfev30mSoOPiMTmV-82" vertex="1">
          <mxGeometry y="26" width="190" height="26" as="geometry" />
        </mxCell>
        <mxCell id="qDV3Kfev30mSoOPiMTmV-84" value="+ releaseMonth : int" style="text;strokeColor=none;fillColor=none;align=left;verticalAlign=top;spacingLeft=4;spacingRight=4;overflow=hidden;rotatable=0;points=[[0,0.5],[1,0.5]];portConstraint=eastwest;fontColor=#000000;" parent="qDV3Kfev30mSoOPiMTmV-82" vertex="1">
          <mxGeometry y="52" width="190" height="26" as="geometry" />
        </mxCell>
        <mxCell id="qDV3Kfev30mSoOPiMTmV-85" value="" style="line;strokeWidth=1;fillColor=none;align=left;verticalAlign=middle;spacingTop=-1;spacingLeft=3;spacingRight=3;rotatable=0;labelPosition=right;points=[];portConstraint=eastwest;" parent="qDV3Kfev30mSoOPiMTmV-82" vertex="1">
          <mxGeometry y="78" width="190" height="8" as="geometry" />
        </mxCell>
        <mxCell id="qDV3Kfev30mSoOPiMTmV-86" value="+ Classic (string)" style="text;strokeColor=none;fillColor=none;align=left;verticalAlign=top;spacingLeft=4;spacingRight=4;overflow=hidden;rotatable=0;points=[[0,0.5],[1,0.5]];portConstraint=eastwest;" parent="qDV3Kfev30mSoOPiMTmV-82" vertex="1">
          <mxGeometry y="86" width="190" height="26" as="geometry" />
        </mxCell>
        <mxCell id="qDV3Kfev30mSoOPiMTmV-87" value="+ virtual ~Classic ( )" style="text;strokeColor=none;fillColor=none;align=left;verticalAlign=top;spacingLeft=4;spacingRight=4;overflow=hidden;rotatable=0;points=[[0,0.5],[1,0.5]];portConstraint=eastwest;" parent="qDV3Kfev30mSoOPiMTmV-82" vertex="1">
          <mxGeometry y="112" width="190" height="26" as="geometry" />
        </mxCell>
        <mxCell id="qDV3Kfev30mSoOPiMTmV-88" value="+ virtual compareTo(Classics) : int" style="text;strokeColor=none;fillColor=none;align=left;verticalAlign=top;spacingLeft=4;spacingRight=4;overflow=hidden;rotatable=0;points=[[0,0.5],[1,0.5]];portConstraint=eastwest;" parent="qDV3Kfev30mSoOPiMTmV-82" vertex="1">
          <mxGeometry y="138" width="190" height="26" as="geometry" />
        </mxCell>
        <mxCell id="qDV3Kfev30mSoOPiMTmV-89" value="" style="endArrow=block;endSize=16;endFill=0;html=1;edgeStyle=orthogonalEdgeStyle;exitX=0.48;exitY=0;exitDx=0;exitDy=0;exitPerimeter=0;" parent="1" source="qDV3Kfev30mSoOPiMTmV-72" edge="1">
          <mxGeometry x="0.9427" y="45" width="160" relative="1" as="geometry">
            <mxPoint x="271" y="1462.8899999999999" as="sourcePoint" />
            <mxPoint x="476" y="1410" as="targetPoint" />
            <Array as="points">
              <mxPoint x="251" y="1463" />
              <mxPoint x="251" y="1450" />
              <mxPoint x="476" y="1450" />
            </Array>
            <mxPoint y="1" as="offset" />
          </mxGeometry>
        </mxCell>
        <mxCell id="qDV3Kfev30mSoOPiMTmV-90" value="" style="endArrow=block;endSize=16;endFill=0;html=1;exitX=0.476;exitY=0;exitDx=0;exitDy=0;exitPerimeter=0;edgeStyle=orthogonalEdgeStyle;" parent="1" edge="1">
          <mxGeometry x="0.9427" y="45" width="160" relative="1" as="geometry">
            <mxPoint x="681.9200000000001" y="1462.8899999999999" as="sourcePoint" />
            <mxPoint x="476" y="1410" as="targetPoint" />
            <Array as="points">
              <mxPoint x="682" y="1450" />
              <mxPoint x="476" y="1450" />
            </Array>
            <mxPoint y="1" as="offset" />
          </mxGeometry>
        </mxCell>
        <mxCell id="qDV3Kfev30mSoOPiMTmV-91" value="" style="endArrow=block;endSize=16;endFill=0;html=1;exitX=0.422;exitY=-0.002;exitDx=0;exitDy=0;exitPerimeter=0;" parent="1" edge="1" source="qDV3Kfev30mSoOPiMTmV-77">
          <mxGeometry x="0.9427" y="45" width="160" relative="1" as="geometry">
            <mxPoint x="475.84000000000003" y="1460.338" as="sourcePoint" />
            <mxPoint x="476" y="1410" as="targetPoint" />
            <Array as="points" />
            <mxPoint y="1" as="offset" />
          </mxGeometry>
        </mxCell>
        <mxCell id="qDV3Kfev30mSoOPiMTmV-92" value="*" style="endArrow=none;html=1;endSize=12;startArrow=diamondThin;startSize=14;startFill=1;edgeStyle=orthogonalEdgeStyle;align=left;verticalAlign=bottom;fontColor=#000000;exitX=1.021;exitY=0.172;exitDx=0;exitDy=0;exitPerimeter=0;entryX=-0.013;entryY=0.046;entryDx=0;entryDy=0;endFill=0;entryPerimeter=0;" parent="1" target="qDV3Kfev30mSoOPiMTmV-58" edge="1">
          <mxGeometry x="0.9618" y="10" relative="1" as="geometry">
            <mxPoint x="313.7800000000001" y="1109.338" as="sourcePoint" />
            <mxPoint x="480" y="1060.89" as="targetPoint" />
            <Array as="points">
              <mxPoint x="360" y="1109" />
              <mxPoint x="360" y="1080" />
            </Array>
            <mxPoint as="offset" />
          </mxGeometry>
        </mxCell>
        <mxCell id="qDV3Kfev30mSoOPiMTmV-93" value="" style="endArrow=open;shadow=0;strokeWidth=1;strokeColor=#000000;rounded=0;endFill=1;edgeStyle=orthogonalEdgeStyle;elbow=vertical;exitX=0.517;exitY=1.037;exitDx=0;exitDy=0;exitPerimeter=0;entryX=0.463;entryY=0;entryDx=0;entryDy=0;entryPerimeter=0;" parent="1" source="QWoVcq6nWut89EjXCq6N-48" target="qDV3Kfev30mSoOPiMTmV-48" edge="1">
          <mxGeometry x="0.5" y="41" relative="1" as="geometry">
            <mxPoint x="-1.2899999999997362" y="950.8899999999999" as="sourcePoint" />
            <mxPoint x="410" y="838.8900000000001" as="targetPoint" />
            <mxPoint x="-40" y="32" as="offset" />
          </mxGeometry>
        </mxCell>
        <mxCell id="qDV3Kfev30mSoOPiMTmV-94" value="3" style="resizable=0;align=left;verticalAlign=bottom;labelBackgroundColor=none;fontSize=12;" parent="qDV3Kfev30mSoOPiMTmV-93" connectable="0" vertex="1">
          <mxGeometry x="-1" relative="1" as="geometry">
            <mxPoint y="18" as="offset" />
          </mxGeometry>
        </mxCell>
        <mxCell id="qDV3Kfev30mSoOPiMTmV-95" value="1" style="resizable=0;align=right;verticalAlign=bottom;labelBackgroundColor=none;fontSize=12;" parent="qDV3Kfev30mSoOPiMTmV-93" connectable="0" vertex="1">
          <mxGeometry x="1" relative="1" as="geometry">
            <mxPoint x="-7" y="4" as="offset" />
          </mxGeometry>
        </mxCell>
        <mxCell id="qDV3Kfev30mSoOPiMTmV-96" value="" style="endArrow=open;shadow=0;strokeWidth=1;strokeColor=#000000;rounded=0;endFill=1;edgeStyle=orthogonalEdgeStyle;elbow=vertical;entryX=0.594;entryY=-0.001;entryDx=0;entryDy=0;entryPerimeter=0;" parent="1" target="QWoVcq6nWut89EjXCq6N-40" edge="1">
          <mxGeometry x="0.5" y="41" relative="1" as="geometry">
            <mxPoint x="290" y="300" as="sourcePoint" />
            <mxPoint x="450" y="157" as="targetPoint" />
            <mxPoint x="-40" y="32" as="offset" />
            <Array as="points">
              <mxPoint x="330" y="300" />
              <mxPoint x="330" y="488" />
              <mxPoint x="40" y="488" />
              <mxPoint x="40" y="800" />
              <mxPoint x="230" y="800" />
              <mxPoint x="230" y="839" />
              <mxPoint x="229" y="839" />
            </Array>
          </mxGeometry>
        </mxCell>
        <mxCell id="qDV3Kfev30mSoOPiMTmV-97" value="1" style="resizable=0;align=left;verticalAlign=bottom;labelBackgroundColor=none;fontSize=12;" parent="qDV3Kfev30mSoOPiMTmV-96" connectable="0" vertex="1">
          <mxGeometry x="-1" relative="1" as="geometry">
            <mxPoint x="2" as="offset" />
          </mxGeometry>
        </mxCell>
        <mxCell id="qDV3Kfev30mSoOPiMTmV-99" value="HashTable&lt;Integer, Customer&gt;" style="swimlane;fontStyle=1;align=center;verticalAlign=top;childLayout=stackLayout;horizontal=1;startSize=26;horizontalStack=0;resizeParent=1;resizeParentMax=0;resizeLast=0;collapsible=1;marginBottom=0;" parent="1" vertex="1">
          <mxGeometry x="360" y="807.0000000000001" width="200" height="242" as="geometry" />
        </mxCell>
        <mxCell id="qDV3Kfev30mSoOPiMTmV-100" value="- customers[] : array&lt;Customer&gt;" style="text;strokeColor=none;fillColor=none;align=left;verticalAlign=top;spacingLeft=4;spacingRight=4;overflow=hidden;rotatable=0;points=[[0,0.5],[1,0.5]];portConstraint=eastwest;" parent="qDV3Kfev30mSoOPiMTmV-99" vertex="1">
          <mxGeometry y="26" width="200" height="26" as="geometry" />
        </mxCell>
        <mxCell id="jTKOp4NMPJWGSixjttvo-14" value="- size : int" style="text;strokeColor=none;fillColor=none;align=left;verticalAlign=top;spacingLeft=4;spacingRight=4;overflow=hidden;rotatable=0;points=[[0,0.5],[1,0.5]];portConstraint=eastwest;" vertex="1" parent="qDV3Kfev30mSoOPiMTmV-99">
          <mxGeometry y="52" width="200" height="26" as="geometry" />
        </mxCell>
        <mxCell id="qDV3Kfev30mSoOPiMTmV-101" value="" style="line;strokeWidth=1;fillColor=none;align=left;verticalAlign=middle;spacingTop=-1;spacingLeft=3;spacingRight=3;rotatable=0;labelPosition=right;points=[];portConstraint=eastwest;" parent="qDV3Kfev30mSoOPiMTmV-99" vertex="1">
          <mxGeometry y="78" width="200" height="8" as="geometry" />
        </mxCell>
        <mxCell id="QWoVcq6nWut89EjXCq6N-27" value="+ HashTable&lt;key, value&gt;( )Â " style="text;strokeColor=none;fillColor=none;align=left;verticalAlign=top;spacingLeft=4;spacingRight=4;overflow=hidden;rotatable=0;points=[[0,0.5],[1,0.5]];portConstraint=eastwest;" parent="qDV3Kfev30mSoOPiMTmV-99" vertex="1">
          <mxGeometry y="86" width="200" height="26" as="geometry" />
        </mxCell>
        <mxCell id="QWoVcq6nWut89EjXCq6N-30" value="- ~HashTable( )Â " style="text;strokeColor=none;fillColor=none;align=left;verticalAlign=top;spacingLeft=4;spacingRight=4;overflow=hidden;rotatable=0;points=[[0,0.5],[1,0.5]];portConstraint=eastwest;" parent="qDV3Kfev30mSoOPiMTmV-99" vertex="1">
          <mxGeometry y="112" width="200" height="26" as="geometry" />
        </mxCell>
        <mxCell id="qDV3Kfev30mSoOPiMTmV-102" value="- hash(key) : int" style="text;strokeColor=none;fillColor=none;align=left;verticalAlign=top;spacingLeft=4;spacingRight=4;overflow=hidden;rotatable=0;points=[[0,0.5],[1,0.5]];portConstraint=eastwest;" parent="qDV3Kfev30mSoOPiMTmV-99" vertex="1">
          <mxGeometry y="138" width="200" height="26" as="geometry" />
        </mxCell>
        <mxCell id="qDV3Kfev30mSoOPiMTmV-103" value="+ insert (key, value)" style="text;strokeColor=none;fillColor=none;align=left;verticalAlign=top;spacingLeft=4;spacingRight=4;overflow=hidden;rotatable=0;points=[[0,0.5],[1,0.5]];portConstraint=eastwest;" parent="qDV3Kfev30mSoOPiMTmV-99" vertex="1">
          <mxGeometry y="164" width="200" height="26" as="geometry" />
        </mxCell>
        <mxCell id="QWoVcq6nWut89EjXCq6N-29" value="+ remove (key)" style="text;strokeColor=none;fillColor=none;align=left;verticalAlign=top;spacingLeft=4;spacingRight=4;overflow=hidden;rotatable=0;points=[[0,0.5],[1,0.5]];portConstraint=eastwest;" parent="qDV3Kfev30mSoOPiMTmV-99" vertex="1">
          <mxGeometry y="190" width="200" height="26" as="geometry" />
        </mxCell>
        <mxCell id="QWoVcq6nWut89EjXCq6N-28" value="+ retrieve (key) : value" style="text;strokeColor=none;fillColor=none;align=left;verticalAlign=top;spacingLeft=4;spacingRight=4;overflow=hidden;rotatable=0;points=[[0,0.5],[1,0.5]];portConstraint=eastwest;" parent="qDV3Kfev30mSoOPiMTmV-99" vertex="1">
          <mxGeometry y="216" width="200" height="26" as="geometry" />
        </mxCell>
        <mxCell id="qDV3Kfev30mSoOPiMTmV-104" value="Customer" style="swimlane;fontStyle=1;align=center;verticalAlign=top;childLayout=stackLayout;horizontal=1;startSize=26;horizontalStack=0;resizeParent=1;resizeParentMax=0;resizeLast=0;collapsible=1;marginBottom=0;" parent="1" vertex="1">
          <mxGeometry x="650" y="820" width="229.5" height="216" as="geometry" />
        </mxCell>
        <mxCell id="qDV3Kfev30mSoOPiMTmV-105" value="- firstName : string" style="text;strokeColor=none;fillColor=none;align=left;verticalAlign=top;spacingLeft=4;spacingRight=4;overflow=hidden;rotatable=0;points=[[0,0.5],[1,0.5]];portConstraint=eastwest;" parent="qDV3Kfev30mSoOPiMTmV-104" vertex="1">
          <mxGeometry y="26" width="229.5" height="26" as="geometry" />
        </mxCell>
        <mxCell id="qDV3Kfev30mSoOPiMTmV-106" value="- lastName : string" style="text;strokeColor=none;fillColor=none;align=left;verticalAlign=top;spacingLeft=4;spacingRight=4;overflow=hidden;rotatable=0;points=[[0,0.5],[1,0.5]];portConstraint=eastwest;" parent="qDV3Kfev30mSoOPiMTmV-104" vertex="1">
          <mxGeometry y="52" width="229.5" height="26" as="geometry" />
        </mxCell>
        <mxCell id="qDV3Kfev30mSoOPiMTmV-107" value="- customerID : int" style="text;strokeColor=none;fillColor=none;align=left;verticalAlign=top;spacingLeft=4;spacingRight=4;overflow=hidden;rotatable=0;points=[[0,0.5],[1,0.5]];portConstraint=eastwest;" parent="qDV3Kfev30mSoOPiMTmV-104" vertex="1">
          <mxGeometry y="78" width="229.5" height="26" as="geometry" />
        </mxCell>
        <mxCell id="qDV3Kfev30mSoOPiMTmV-108" value="- transactionHistory : List&lt;Transaction&gt;" style="text;strokeColor=none;fillColor=none;align=left;verticalAlign=top;spacingLeft=4;spacingRight=4;overflow=hidden;rotatable=0;points=[[0,0.5],[1,0.5]];portConstraint=eastwest;" parent="qDV3Kfev30mSoOPiMTmV-104" vertex="1">
          <mxGeometry y="104" width="229.5" height="26" as="geometry" />
        </mxCell>
        <mxCell id="qDV3Kfev30mSoOPiMTmV-109" value="" style="line;strokeWidth=1;fillColor=none;align=left;verticalAlign=middle;spacingTop=-1;spacingLeft=3;spacingRight=3;rotatable=0;labelPosition=right;points=[];portConstraint=eastwest;" parent="qDV3Kfev30mSoOPiMTmV-104" vertex="1">
          <mxGeometry y="130" width="229.5" height="8" as="geometry" />
        </mxCell>
        <mxCell id="qDV3Kfev30mSoOPiMTmV-110" value="+ Customer (string)" style="text;strokeColor=none;fillColor=none;align=left;verticalAlign=top;spacingLeft=4;spacingRight=4;overflow=hidden;rotatable=0;points=[[0,0.5],[1,0.5]];portConstraint=eastwest;" parent="qDV3Kfev30mSoOPiMTmV-104" vertex="1">
          <mxGeometry y="138" width="229.5" height="26" as="geometry" />
        </mxCell>
        <mxCell id="jTKOp4NMPJWGSixjttvo-12" value="+ addToHistory (Transaction)" style="text;strokeColor=none;fillColor=none;align=left;verticalAlign=top;spacingLeft=4;spacingRight=4;overflow=hidden;rotatable=0;points=[[0,0.5],[1,0.5]];portConstraint=eastwest;" vertex="1" parent="qDV3Kfev30mSoOPiMTmV-104">
          <mxGeometry y="164" width="229.5" height="26" as="geometry" />
        </mxCell>
        <mxCell id="jTKOp4NMPJWGSixjttvo-13" value="+ getHistory ( ) : list&lt;Transaction&gt;" style="text;strokeColor=none;fillColor=none;align=left;verticalAlign=top;spacingLeft=4;spacingRight=4;overflow=hidden;rotatable=0;points=[[0,0.5],[1,0.5]];portConstraint=eastwest;" vertex="1" parent="qDV3Kfev30mSoOPiMTmV-104">
          <mxGeometry y="190" width="229.5" height="26" as="geometry" />
        </mxCell>
        <mxCell id="qDV3Kfev30mSoOPiMTmV-111" value="" style="endArrow=open;shadow=0;strokeWidth=1;strokeColor=#000000;rounded=0;endFill=1;edgeStyle=orthogonalEdgeStyle;elbow=vertical;entryX=0.5;entryY=0;entryDx=0;entryDy=0;exitX=1;exitY=0.5;exitDx=0;exitDy=0;" parent="1" source="qDV3Kfev30mSoOPiMTmV-3" target="qDV3Kfev30mSoOPiMTmV-99" edge="1">
          <mxGeometry x="0.5" y="41" relative="1" as="geometry">
            <mxPoint x="355.0599999999998" y="299" as="sourcePoint" />
            <mxPoint x="295.0599999999998" y="698" as="targetPoint" />
            <mxPoint x="-40" y="32" as="offset" />
            <Array as="points">
              <mxPoint x="290" y="270" />
              <mxPoint x="350" y="270" />
              <mxPoint x="350" y="498" />
              <mxPoint x="60" y="498" />
              <mxPoint x="60" y="790" />
              <mxPoint x="460" y="790" />
            </Array>
          </mxGeometry>
        </mxCell>
        <mxCell id="qDV3Kfev30mSoOPiMTmV-112" value="1" style="resizable=0;align=left;verticalAlign=bottom;labelBackgroundColor=none;fontSize=12;" parent="qDV3Kfev30mSoOPiMTmV-111" connectable="0" vertex="1">
          <mxGeometry x="-1" relative="1" as="geometry">
            <mxPoint x="1" y="9" as="offset" />
          </mxGeometry>
        </mxCell>
        <mxCell id="qDV3Kfev30mSoOPiMTmV-114" value="" style="endArrow=none;shadow=0;strokeWidth=1;strokeColor=#000000;rounded=0;endFill=0;edgeStyle=orthogonalEdgeStyle;elbow=vertical;exitX=1;exitY=0.25;exitDx=0;exitDy=0;entryX=0;entryY=0.079;entryDx=0;entryDy=0;entryPerimeter=0;startArrow=diamond;startFill=1;" parent="1" source="qDV3Kfev30mSoOPiMTmV-99" target="qDV3Kfev30mSoOPiMTmV-105" edge="1">
          <mxGeometry x="0.5" y="41" relative="1" as="geometry">
            <mxPoint x="234.07999999999993" y="960.8899999999996" as="sourcePoint" />
            <mxPoint x="234.07999999999993" y="1018.8899999999999" as="targetPoint" />
            <mxPoint x="-40" y="32" as="offset" />
          </mxGeometry>
        </mxCell>
        <mxCell id="qDV3Kfev30mSoOPiMTmV-115" value="1" style="resizable=0;align=left;verticalAlign=bottom;labelBackgroundColor=none;fontSize=12;" parent="qDV3Kfev30mSoOPiMTmV-114" connectable="0" vertex="1">
          <mxGeometry x="-1" relative="1" as="geometry">
            <mxPoint y="18" as="offset" />
          </mxGeometry>
        </mxCell>
        <mxCell id="qDV3Kfev30mSoOPiMTmV-116" value="*" style="resizable=0;align=right;verticalAlign=bottom;labelBackgroundColor=none;fontSize=12;" parent="qDV3Kfev30mSoOPiMTmV-114" connectable="0" vertex="1">
          <mxGeometry x="1" relative="1" as="geometry">
            <mxPoint x="-7" y="1.9499999999999993" as="offset" />
          </mxGeometry>
        </mxCell>
        <mxCell id="qDV3Kfev30mSoOPiMTmV-117" value="Driver" style="swimlane;fontStyle=1;align=center;verticalAlign=top;childLayout=stackLayout;horizontal=1;startSize=26;horizontalStack=0;resizeParent=1;resizeParentMax=0;resizeLast=0;collapsible=1;marginBottom=0;" parent="1" vertex="1">
          <mxGeometry x="90" y="60" width="160" height="60" as="geometry" />
        </mxCell>
        <mxCell id="qDV3Kfev30mSoOPiMTmV-118" value="" style="line;strokeWidth=1;fillColor=none;align=left;verticalAlign=middle;spacingTop=-1;spacingLeft=3;spacingRight=3;rotatable=0;labelPosition=right;points=[];portConstraint=eastwest;" parent="qDV3Kfev30mSoOPiMTmV-117" vertex="1">
          <mxGeometry y="26" width="160" height="8" as="geometry" />
        </mxCell>
        <mxCell id="qDV3Kfev30mSoOPiMTmV-119" value="+ main ( )" style="text;strokeColor=none;fillColor=none;align=left;verticalAlign=top;spacingLeft=4;spacingRight=4;overflow=hidden;rotatable=0;points=[[0,0.5],[1,0.5]];portConstraint=eastwest;" parent="qDV3Kfev30mSoOPiMTmV-117" vertex="1">
          <mxGeometry y="34" width="160" height="26" as="geometry" />
        </mxCell>
        <mxCell id="qDV3Kfev30mSoOPiMTmV-120" value="" style="endArrow=classic;html=1;entryX=0.5;entryY=0;entryDx=0;entryDy=0;edgeStyle=orthogonalEdgeStyle;exitX=1;exitY=0.25;exitDx=0;exitDy=0;" parent="1" source="qDV3Kfev30mSoOPiMTmV-117" target="qDV3Kfev30mSoOPiMTmV-1" edge="1">
          <mxGeometry width="50" height="50" relative="1" as="geometry">
            <mxPoint x="290" y="108" as="sourcePoint" />
            <mxPoint x="440" y="328" as="targetPoint" />
            <Array as="points">
              <mxPoint x="290" y="75" />
              <mxPoint x="290" y="130" />
              <mxPoint x="165" y="130" />
            </Array>
          </mxGeometry>
        </mxCell>
        <mxCell id="qDV3Kfev30mSoOPiMTmV-121" value="MovieFactory" style="swimlane;fontStyle=1;align=center;verticalAlign=top;childLayout=stackLayout;horizontal=1;startSize=26;horizontalStack=0;resizeParent=1;resizeLast=0;collapsible=1;marginBottom=0;rounded=0;shadow=0;strokeWidth=1;" parent="1" vertex="1">
          <mxGeometry x="615" y="1074.89" width="175" height="70" as="geometry">
            <mxRectangle x="616" y="1002.8899999999999" width="160" height="26" as="alternateBounds" />
          </mxGeometry>
        </mxCell>
        <mxCell id="qDV3Kfev30mSoOPiMTmV-122" value="" style="line;html=1;strokeWidth=1;align=left;verticalAlign=middle;spacingTop=-1;spacingLeft=3;spacingRight=3;rotatable=0;labelPosition=right;points=[];portConstraint=eastwest;" parent="qDV3Kfev30mSoOPiMTmV-121" vertex="1">
          <mxGeometry y="26" width="175" height="8" as="geometry" />
        </mxCell>
        <mxCell id="qDV3Kfev30mSoOPiMTmV-123" value="+ createMovie (String) : Movie" style="text;strokeColor=none;fillColor=none;align=left;verticalAlign=top;spacingLeft=4;spacingRight=4;overflow=hidden;rotatable=0;points=[[0,0.5],[1,0.5]];portConstraint=eastwest;" parent="qDV3Kfev30mSoOPiMTmV-121" vertex="1">
          <mxGeometry y="34" width="175" height="26" as="geometry" />
        </mxCell>
        <mxCell id="qDV3Kfev30mSoOPiMTmV-124" value="" style="endArrow=none;html=1;fontColor=#000000;endFill=0;entryX=0.5;entryY=1;entryDx=0;entryDy=0;" parent="1" target="qDV3Kfev30mSoOPiMTmV-121" edge="1">
          <mxGeometry width="50" height="50" relative="1" as="geometry">
            <mxPoint x="690" y="1628" as="sourcePoint" />
            <mxPoint x="688" y="1150" as="targetPoint" />
            <Array as="points">
              <mxPoint x="690" y="1649" />
              <mxPoint x="840" y="1648.8899999999999" />
              <mxPoint x="840" y="1368.8899999999999" />
              <mxPoint x="703" y="1369" />
            </Array>
          </mxGeometry>
        </mxCell>
        <mxCell id="qDV3Kfev30mSoOPiMTmV-125" value="" style="endArrow=none;html=1;fontColor=#000000;exitX=0.499;exitY=0.996;exitDx=0;exitDy=0;exitPerimeter=0;" parent="1" source="qDV3Kfev30mSoOPiMTmV-81" edge="1">
          <mxGeometry width="50" height="50" relative="1" as="geometry">
            <mxPoint x="480.0000000000002" y="1533.8899999999999" as="sourcePoint" />
            <mxPoint x="700" y="1648.8899999999999" as="targetPoint" />
            <Array as="points">
              <mxPoint x="490" y="1649" />
            </Array>
          </mxGeometry>
        </mxCell>
        <mxCell id="qDV3Kfev30mSoOPiMTmV-126" value="" style="endArrow=none;html=1;fontColor=#000000;exitX=0.5;exitY=0.981;exitDx=0;exitDy=0;exitPerimeter=0;" parent="1" source="qDV3Kfev30mSoOPiMTmV-76" edge="1">
          <mxGeometry width="50" height="50" relative="1" as="geometry">
            <mxPoint x="269.9999999999998" y="1533.8899999999999" as="sourcePoint" />
            <mxPoint x="500" y="1648.8899999999999" as="targetPoint" />
            <Array as="points">
              <mxPoint x="250" y="1649" />
            </Array>
          </mxGeometry>
        </mxCell>
        <mxCell id="qDV3Kfev30mSoOPiMTmV-127" value="" style="endArrow=none;html=1;fontColor=#FF3333;" parent="1" edge="1">
          <mxGeometry width="50" height="50" relative="1" as="geometry">
            <mxPoint x="559" y="1089.9999999999998" as="sourcePoint" />
            <mxPoint x="615" y="1089.9999999999998" as="targetPoint" />
          </mxGeometry>
        </mxCell>
        <mxCell id="qDV3Kfev30mSoOPiMTmV-128" value="Return" style="swimlane;fontStyle=1;align=center;verticalAlign=top;childLayout=stackLayout;horizontal=1;startSize=26;horizontalStack=0;resizeParent=1;resizeLast=0;collapsible=1;marginBottom=0;rounded=0;shadow=0;strokeWidth=1;" parent="1" vertex="1">
          <mxGeometry x="810" y="522" width="220" height="238" as="geometry">
            <mxRectangle x="340" y="380" width="170" height="26" as="alternateBounds" />
          </mxGeometry>
        </mxCell>
        <mxCell id="qDV3Kfev30mSoOPiMTmV-129" value="- movie : Movie" style="text;strokeColor=none;fillColor=none;align=left;verticalAlign=top;spacingLeft=4;spacingRight=4;overflow=hidden;rotatable=0;points=[[0,0.5],[1,0.5]];portConstraint=eastwest;fontColor=#000000;" parent="qDV3Kfev30mSoOPiMTmV-128" vertex="1">
          <mxGeometry y="26" width="220" height="26" as="geometry" />
        </mxCell>
        <mxCell id="qDV3Kfev30mSoOPiMTmV-130" value="- user : Customer" style="text;strokeColor=none;fillColor=none;align=left;verticalAlign=top;spacingLeft=4;spacingRight=4;overflow=hidden;rotatable=0;points=[[0,0.5],[1,0.5]];portConstraint=eastwest;fontColor=#000000;" parent="qDV3Kfev30mSoOPiMTmV-128" vertex="1">
          <mxGeometry y="52" width="220" height="26" as="geometry" />
        </mxCell>
        <mxCell id="qDV3Kfev30mSoOPiMTmV-131" value="" style="line;html=1;strokeWidth=1;align=left;verticalAlign=middle;spacingTop=-1;spacingLeft=3;spacingRight=3;rotatable=0;labelPosition=right;points=[];portConstraint=eastwest;" parent="qDV3Kfev30mSoOPiMTmV-128" vertex="1">
          <mxGeometry y="78" width="220" height="8" as="geometry" />
        </mxCell>
        <mxCell id="QWoVcq6nWut89EjXCq6N-22" value="+ Return (string, HashTable&lt;string,Â &#xa;Movie&gt;&amp; HashTable&lt;int, Customer&gt;&amp;)" style="text;strokeColor=none;fillColor=none;align=left;verticalAlign=top;spacingLeft=4;spacingRight=4;overflow=hidden;rotatable=0;points=[[0,0.5],[1,0.5]];portConstraint=eastwest;fontColor=#000000;" parent="qDV3Kfev30mSoOPiMTmV-128" vertex="1">
          <mxGeometry y="86" width="220" height="44" as="geometry" />
        </mxCell>
        <mxCell id="QWoVcq6nWut89EjXCq6N-23" value="+ ~Return ( )" style="text;strokeColor=none;fillColor=none;align=left;verticalAlign=top;spacingLeft=4;spacingRight=4;overflow=hidden;rotatable=0;points=[[0,0.5],[1,0.5]];portConstraint=eastwest;fontColor=#000000;" parent="qDV3Kfev30mSoOPiMTmV-128" vertex="1">
          <mxGeometry y="130" width="220" height="26" as="geometry" />
        </mxCell>
        <mxCell id="qDV3Kfev30mSoOPiMTmV-132" value="+ doTransaction( )" style="text;strokeColor=none;fillColor=none;align=left;verticalAlign=top;spacingLeft=4;spacingRight=4;overflow=hidden;rotatable=0;points=[[0,0.5],[1,0.5]];portConstraint=eastwest;fontColor=#000000;" parent="qDV3Kfev30mSoOPiMTmV-128" vertex="1">
          <mxGeometry y="156" width="220" height="26" as="geometry" />
        </mxCell>
        <mxCell id="qDV3Kfev30mSoOPiMTmV-133" value="- virtual isValid(string info, &#xa;Â  HashTable&lt;char, Movie&gt;&amp;,&#xa;Â  HashTable&lt;int, Customer&gt;&amp;)Â : bool" style="text;strokeColor=none;fillColor=none;align=left;verticalAlign=top;spacingLeft=4;spacingRight=4;overflow=hidden;rotatable=0;points=[[0,0.5],[1,0.5]];portConstraint=eastwest;" parent="qDV3Kfev30mSoOPiMTmV-128" vertex="1">
          <mxGeometry y="182" width="220" height="48" as="geometry" />
        </mxCell>
        <mxCell id="qDV3Kfev30mSoOPiMTmV-134" value="Inventory" style="swimlane;fontStyle=1;align=center;verticalAlign=top;childLayout=stackLayout;horizontal=1;startSize=26;horizontalStack=0;resizeParent=1;resizeLast=0;collapsible=1;marginBottom=0;rounded=0;shadow=0;strokeWidth=1;" parent="1" vertex="1">
          <mxGeometry x="316" y="522" width="230" height="204" as="geometry">
            <mxRectangle x="340" y="380" width="170" height="26" as="alternateBounds" />
          </mxGeometry>
        </mxCell>
        <mxCell id="jTKOp4NMPJWGSixjttvo-16" value="- inventory : HashTable&lt;string, BinTree&gt;" style="text;strokeColor=none;fillColor=none;align=left;verticalAlign=top;spacingLeft=4;spacingRight=4;overflow=hidden;rotatable=0;points=[[0,0.5],[1,0.5]];portConstraint=eastwest;fontColor=#000000;" vertex="1" parent="qDV3Kfev30mSoOPiMTmV-134">
          <mxGeometry y="26" width="230" height="26" as="geometry" />
        </mxCell>
        <mxCell id="qDV3Kfev30mSoOPiMTmV-136" value="" style="line;html=1;strokeWidth=1;align=left;verticalAlign=middle;spacingTop=-1;spacingLeft=3;spacingRight=3;rotatable=0;labelPosition=right;points=[];portConstraint=eastwest;" parent="qDV3Kfev30mSoOPiMTmV-134" vertex="1">
          <mxGeometry y="52" width="230" height="8" as="geometry" />
        </mxCell>
        <mxCell id="QWoVcq6nWut89EjXCq6N-18" value="+ Inventory(string, HashTable&lt;string,Â &#xa;Movie&gt;&amp;)" style="text;strokeColor=none;fillColor=none;align=left;verticalAlign=top;spacingLeft=4;spacingRight=4;overflow=hidden;rotatable=0;points=[[0,0.5],[1,0.5]];portConstraint=eastwest;fontColor=#000000;" parent="qDV3Kfev30mSoOPiMTmV-134" vertex="1">
          <mxGeometry y="60" width="230" height="40" as="geometry" />
        </mxCell>
        <mxCell id="QWoVcq6nWut89EjXCq6N-19" value="+ ~Inventory( )" style="text;strokeColor=none;fillColor=none;align=left;verticalAlign=top;spacingLeft=4;spacingRight=4;overflow=hidden;rotatable=0;points=[[0,0.5],[1,0.5]];portConstraint=eastwest;fontColor=#000000;" parent="qDV3Kfev30mSoOPiMTmV-134" vertex="1">
          <mxGeometry y="100" width="230" height="30" as="geometry" />
        </mxCell>
        <mxCell id="qDV3Kfev30mSoOPiMTmV-137" value="+ doTransaction( )" style="text;strokeColor=none;fillColor=none;align=left;verticalAlign=top;spacingLeft=4;spacingRight=4;overflow=hidden;rotatable=0;points=[[0,0.5],[1,0.5]];portConstraint=eastwest;fontColor=#000000;" parent="qDV3Kfev30mSoOPiMTmV-134" vertex="1">
          <mxGeometry y="130" width="230" height="26" as="geometry" />
        </mxCell>
        <mxCell id="qDV3Kfev30mSoOPiMTmV-138" value="- virtual isValid(string info, &#xa;Â  HashTable&lt;char, Movie&gt;&amp;)Â : bool" style="text;strokeColor=none;fillColor=none;align=left;verticalAlign=top;spacingLeft=4;spacingRight=4;overflow=hidden;rotatable=0;points=[[0,0.5],[1,0.5]];portConstraint=eastwest;" parent="qDV3Kfev30mSoOPiMTmV-134" vertex="1">
          <mxGeometry y="156" width="230" height="48" as="geometry" />
        </mxCell>
        <mxCell id="qDV3Kfev30mSoOPiMTmV-139" value="History" style="swimlane;fontStyle=1;align=center;verticalAlign=top;childLayout=stackLayout;horizontal=1;startSize=26;horizontalStack=0;resizeParent=1;resizeLast=0;collapsible=1;marginBottom=0;rounded=0;shadow=0;strokeWidth=1;" parent="1" vertex="1">
          <mxGeometry x="80" y="522" width="220" height="204" as="geometry">
            <mxRectangle x="340" y="380" width="170" height="26" as="alternateBounds" />
          </mxGeometry>
        </mxCell>
        <mxCell id="qDV3Kfev30mSoOPiMTmV-140" value="- user : Customer" style="text;strokeColor=none;fillColor=none;align=left;verticalAlign=top;spacingLeft=4;spacingRight=4;overflow=hidden;rotatable=0;points=[[0,0.5],[1,0.5]];portConstraint=eastwest;fontColor=#000000;" parent="qDV3Kfev30mSoOPiMTmV-139" vertex="1">
          <mxGeometry y="26" width="220" height="26" as="geometry" />
        </mxCell>
        <mxCell id="qDV3Kfev30mSoOPiMTmV-141" value="" style="line;html=1;strokeWidth=1;align=left;verticalAlign=middle;spacingTop=-1;spacingLeft=3;spacingRight=3;rotatable=0;labelPosition=right;points=[];portConstraint=eastwest;" parent="qDV3Kfev30mSoOPiMTmV-139" vertex="1">
          <mxGeometry y="52" width="220" height="8" as="geometry" />
        </mxCell>
        <mxCell id="QWoVcq6nWut89EjXCq6N-16" value="+ History(string, &#xa;HashTable&lt;int, Customer&gt;&amp;)" style="text;strokeColor=none;fillColor=none;align=left;verticalAlign=top;spacingLeft=4;spacingRight=4;overflow=hidden;rotatable=0;points=[[0,0.5],[1,0.5]];portConstraint=eastwest;fontColor=#000000;" parent="qDV3Kfev30mSoOPiMTmV-139" vertex="1">
          <mxGeometry y="60" width="220" height="40" as="geometry" />
        </mxCell>
        <mxCell id="QWoVcq6nWut89EjXCq6N-14" value="+ virtual ~History( )" style="text;strokeColor=none;fillColor=none;align=left;verticalAlign=top;spacingLeft=4;spacingRight=4;overflow=hidden;rotatable=0;points=[[0,0.5],[1,0.5]];portConstraint=eastwest;fontColor=#000000;" parent="qDV3Kfev30mSoOPiMTmV-139" vertex="1">
          <mxGeometry y="100" width="220" height="30" as="geometry" />
        </mxCell>
        <mxCell id="qDV3Kfev30mSoOPiMTmV-142" value="+ doTransaction( )" style="text;strokeColor=none;fillColor=none;align=left;verticalAlign=top;spacingLeft=4;spacingRight=4;overflow=hidden;rotatable=0;points=[[0,0.5],[1,0.5]];portConstraint=eastwest;fontColor=#000000;" parent="qDV3Kfev30mSoOPiMTmV-139" vertex="1">
          <mxGeometry y="130" width="220" height="26" as="geometry" />
        </mxCell>
        <mxCell id="qDV3Kfev30mSoOPiMTmV-143" value="- virtual isValid(string info,&#xa;Â  HashTable&lt;int, Customer&gt;&amp;) : bool" style="text;strokeColor=none;fillColor=none;align=left;verticalAlign=top;spacingLeft=4;spacingRight=4;overflow=hidden;rotatable=0;points=[[0,0.5],[1,0.5]];portConstraint=eastwest;" parent="qDV3Kfev30mSoOPiMTmV-139" vertex="1">
          <mxGeometry y="156" width="220" height="48" as="geometry" />
        </mxCell>
        <mxCell id="QWoVcq6nWut89EjXCq6N-40" value="HashTable&lt;String, BinTree&gt;" style="swimlane;fontStyle=1;align=center;verticalAlign=top;childLayout=stackLayout;horizontal=1;startSize=26;horizontalStack=0;resizeParent=1;resizeParentMax=0;resizeLast=0;collapsible=1;marginBottom=0;" parent="1" vertex="1">
          <mxGeometry x="110" y="807.0000000000001" width="200" height="242" as="geometry" />
        </mxCell>
        <mxCell id="QWoVcq6nWut89EjXCq6N-41" value="- inventory[] : array&lt;BinTree&gt;" style="text;strokeColor=none;fillColor=none;align=left;verticalAlign=top;spacingLeft=4;spacingRight=4;overflow=hidden;rotatable=0;points=[[0,0.5],[1,0.5]];portConstraint=eastwest;" parent="QWoVcq6nWut89EjXCq6N-40" vertex="1">
          <mxGeometry y="26" width="200" height="26" as="geometry" />
        </mxCell>
        <mxCell id="jTKOp4NMPJWGSixjttvo-15" value="- size : int" style="text;strokeColor=none;fillColor=none;align=left;verticalAlign=top;spacingLeft=4;spacingRight=4;overflow=hidden;rotatable=0;points=[[0,0.5],[1,0.5]];portConstraint=eastwest;" vertex="1" parent="QWoVcq6nWut89EjXCq6N-40">
          <mxGeometry y="52" width="200" height="26" as="geometry" />
        </mxCell>
        <mxCell id="QWoVcq6nWut89EjXCq6N-42" value="" style="line;strokeWidth=1;fillColor=none;align=left;verticalAlign=middle;spacingTop=-1;spacingLeft=3;spacingRight=3;rotatable=0;labelPosition=right;points=[];portConstraint=eastwest;" parent="QWoVcq6nWut89EjXCq6N-40" vertex="1">
          <mxGeometry y="78" width="200" height="8" as="geometry" />
        </mxCell>
        <mxCell id="QWoVcq6nWut89EjXCq6N-43" value="+ HashTable&lt;key, value&gt;( )Â " style="text;strokeColor=none;fillColor=none;align=left;verticalAlign=top;spacingLeft=4;spacingRight=4;overflow=hidden;rotatable=0;points=[[0,0.5],[1,0.5]];portConstraint=eastwest;" parent="QWoVcq6nWut89EjXCq6N-40" vertex="1">
          <mxGeometry y="86" width="200" height="26" as="geometry" />
        </mxCell>
        <mxCell id="QWoVcq6nWut89EjXCq6N-44" value="- ~HashTable( )Â " style="text;strokeColor=none;fillColor=none;align=left;verticalAlign=top;spacingLeft=4;spacingRight=4;overflow=hidden;rotatable=0;points=[[0,0.5],[1,0.5]];portConstraint=eastwest;" parent="QWoVcq6nWut89EjXCq6N-40" vertex="1">
          <mxGeometry y="112" width="200" height="26" as="geometry" />
        </mxCell>
        <mxCell id="QWoVcq6nWut89EjXCq6N-45" value="- hash(key) : int" style="text;strokeColor=none;fillColor=none;align=left;verticalAlign=top;spacingLeft=4;spacingRight=4;overflow=hidden;rotatable=0;points=[[0,0.5],[1,0.5]];portConstraint=eastwest;" parent="QWoVcq6nWut89EjXCq6N-40" vertex="1">
          <mxGeometry y="138" width="200" height="26" as="geometry" />
        </mxCell>
        <mxCell id="QWoVcq6nWut89EjXCq6N-46" value="+ insert (key, value)" style="text;strokeColor=none;fillColor=none;align=left;verticalAlign=top;spacingLeft=4;spacingRight=4;overflow=hidden;rotatable=0;points=[[0,0.5],[1,0.5]];portConstraint=eastwest;" parent="QWoVcq6nWut89EjXCq6N-40" vertex="1">
          <mxGeometry y="164" width="200" height="26" as="geometry" />
        </mxCell>
        <mxCell id="QWoVcq6nWut89EjXCq6N-47" value="+ remove (key)" style="text;strokeColor=none;fillColor=none;align=left;verticalAlign=top;spacingLeft=4;spacingRight=4;overflow=hidden;rotatable=0;points=[[0,0.5],[1,0.5]];portConstraint=eastwest;" parent="QWoVcq6nWut89EjXCq6N-40" vertex="1">
          <mxGeometry y="190" width="200" height="26" as="geometry" />
        </mxCell>
        <mxCell id="QWoVcq6nWut89EjXCq6N-48" value="+ retrieve (key) : value" style="text;strokeColor=none;fillColor=none;align=left;verticalAlign=top;spacingLeft=4;spacingRight=4;overflow=hidden;rotatable=0;points=[[0,0.5],[1,0.5]];portConstraint=eastwest;" parent="QWoVcq6nWut89EjXCq6N-40" vertex="1">
          <mxGeometry y="216" width="200" height="26" as="geometry" />
        </mxCell>
        <mxCell id="QWoVcq6nWut89EjXCq6N-51" value="1" style="resizable=0;align=left;verticalAlign=bottom;labelBackgroundColor=none;fontSize=12;" parent="1" connectable="0" vertex="1">
          <mxGeometry x="320" y="1090" as="geometry">
            <mxPoint y="18" as="offset" />
          </mxGeometry>
        </mxCell>
        <mxCell id="QWoVcq6nWut89EjXCq6N-52" value="1" style="text;html=1;" parent="1" vertex="1">
          <mxGeometry x="293" y="207" width="35" height="20" as="geometry" />
        </mxCell>
        <mxCell id="QWoVcq6nWut89EjXCq6N-54" value="*" style="text;html=1;" parent="1" vertex="1">
          <mxGeometry x="529" y="215" width="35" height="20" as="geometry" />
        </mxCell>
      </root>
    </mxGraphModel>
  </diagram>
</mxfile>
